<svg width="37" height="47" viewBox="0 0 37 47" fill="none" xmlns="http://www.w3.org/2000/svg">
<path d="M5.76953 13.0225C5.76953 13.6742 5.44596 14 4.79883 14H1.5791C0.936523 14 0.615234 13.6742 0.615234 13.0225V10.4727H2.21484V12.6533H4.16992V10.5547L0.963867 7.51953C0.731445 7.29622 0.615234 7.01139 0.615234 6.66504V4.28613C0.615234 3.62988 0.936523 3.30176 1.5791 3.30176H4.79883C5.44596 3.30176 5.76953 3.62533 5.76953 4.27246V6.66504H4.16992V4.64844H2.21484V6.58301L5.4209 9.60449C5.65332 9.82324 5.76953 10.1126 5.76953 10.4727V13.0225ZM12.3047 13.0225C12.3047 13.6742 11.9788 14 11.3271 14H7.99121C7.35775 14 7.04102 13.6742 7.04102 13.0225V4.28613C7.04102 3.62988 7.35775 3.30176 7.99121 3.30176H11.3271C11.9788 3.30176 12.3047 3.62988 12.3047 4.28613V6.78809H10.7119V4.67578H8.64062V12.626H10.7119V10.377H12.3047V13.0225ZM19.0381 14H17.3701L15.6064 9.03027C15.6064 9.03027 15.6064 8.70898 15.6064 8.06641H17.1787V4.67578H15.1621V14H13.5625V3.30176H17.8076C18.4502 3.30176 18.7715 3.62988 18.7715 4.28613V8.17578C18.7715 8.62695 18.6188 8.91862 18.3135 9.05078C18.1494 9.11914 17.8031 9.15332 17.2744 9.15332L19.0381 14ZM25.4092 13.0225C25.4092 13.6742 25.0856 14 24.4385 14H20.9658C20.3324 14 20.0156 13.6742 20.0156 13.0225V4.28613C20.0156 3.62988 20.3324 3.30176 20.9658 3.30176H24.4385C25.0856 3.30176 25.4092 3.62988 25.4092 4.28613V13.0225ZM23.8096 12.626V4.67578H21.6152V12.626H23.8096ZM30.9053 14H26.7012V3.30176H28.3008V12.5713H30.9053V14ZM36.0596 14H31.8555V3.30176H33.4551V12.5713H36.0596V14Z" fill="white"/>
<path d="M23.355 19.0217L18 24.365L12.645 19.0217L11 20.6667L18 27.6667L25 20.6667L23.355 19.0217Z" fill="white"/>
<path d="M24.885 23.885L18 30.755L11.115 23.885L9 26L18 35L27 26L24.885 23.885Z" fill="white"/>
</svg>

