<?xml version="1.0" encoding="utf-8"?>
<!-- Generator: Adobe Illustrator 25.2.0, SVG Export Plug-In . SVG Version: 6.00 Build 0)  -->
<svg version="1.1" id="Layer_1" xmlns:v="https://vecta.io/nano"
	 xmlns="http://www.w3.org/2000/svg" xmlns:xlink="http://www.w3.org/1999/xlink" x="0px" y="0px" viewBox="0 0 155.9 109.2"
	 style="enable-background:new 0 0 155.9 109.2;" xml:space="preserve">
<style type="text/css">
	.st0{fill:#FF0000;}
	.st1{fill:#FFFFFF;}
</style>
<path class="st0" d="M152.5,17.1c-1.8-6.7-7.1-12-13.8-13.8C126.6,0,77.9,0,77.9,0S29.2,0.1,17.1,3.4c-6.7,1.8-12,7.1-13.8,13.8
	c-3.7,21.5-5.1,54.3,0.1,74.9c1.8,6.7,7.1,12,13.8,13.8c12.1,3.3,60.8,3.3,60.8,3.3s48.7,0,60.8-3.3c6.7-1.8,12-7.1,13.8-13.8
	C156.4,70.6,157.6,37.8,152.5,17.1z"/>
<path class="st1" d="M62.4,78l40.4-23.4L62.4,31.2V78z"/>
</svg>
