<svg id="Layer_1" data-name="Layer 1" xmlns="http://www.w3.org/2000/svg" viewBox="0 0 203.31 88.16"><defs><style>.cls-1,.cls-2{fill:#dc3c4d;}.cls-1{opacity:0.3;}.cls-2{opacity:0.5;}.cls-3{fill:#fa3343;}</style></defs><g id="drew_ziggy_moon" data-name="drew ziggy moon"><path class="cls-1" d="M41.66,29.54A33.26,33.26,0,0,1,44,25.32a32.34,32.34,0,0,1,2.78-4,43,43,0,0,1,5.42-5.9c1.75-1.53,3.21-2.38,4.3-2.53l.13,0a2.34,2.34,0,0,1,1,.21,2.08,2.08,0,0,1,.56.91l0,.33A5.89,5.89,0,0,1,58,16.54a16.17,16.17,0,0,1-1.3,3.18,38.25,38.25,0,0,1-4.9,6.85,51.71,51.71,0,0,1-7.3,6.85c-1.16.89-2.13,1.63-3,2.26s-1.32,1-1.32,1c-.3,0-.44-.11-.5-.49a4.71,4.71,0,0,1,.17-1.56A20.07,20.07,0,0,1,41.66,29.54ZM45.78,8.29a26.62,26.62,0,0,0,1.06-5.21c0-.85-.35-1.27-1-1.18-.42.06-.94,1-1.6,2.67s-1.7,4.64-2.95,8.84c-1.09,3.5-2,7.06-2.82,10.68A88.39,88.39,0,0,0,36.64,34a22.84,22.84,0,0,0-.46,5.58c0,1.79.06,3.16.11,4.1.26,1.84.51,2.71.8,2.67h0c.26,0,.62-1.11,1-3.23.28-1.32.48-2.34.64-3L42.51,38a42.7,42.7,0,0,0,5.72-3.8,50.15,50.15,0,0,0,5.19-5.06A32.59,32.59,0,0,0,60,18.82a10.92,10.92,0,0,0,.81-5.16,5.14,5.14,0,0,0-.92-2.31,3.77,3.77,0,0,0-2.1-1.2,4.94,4.94,0,0,0-2.72.16,15.41,15.41,0,0,0-5,3.36,44.65,44.65,0,0,0-5.49,6.64c-.57.81-1,1.43-1.41,1.87s-.63.64-.66.48a11.76,11.76,0,0,1,.38-2.46c.32-1.41.68-3.09,1.17-5.08.24-1.06.51-2.17.82-3.33S45.47,9.44,45.78,8.29Z"/><path class="cls-1" d="M61.67,23.6a5.92,5.92,0,0,1,.8-2.21c.45-.75.82-1.19,1.16-1.23h0s.09,0,.1.12a2.59,2.59,0,0,1-.09.61A8.58,8.58,0,0,1,63,22.34a6.07,6.07,0,0,1-.71,1,.64.64,0,0,1-.43.27C61.81,23.67,61.72,23.68,61.67,23.6Zm4-4.76A3.88,3.88,0,0,0,65,17.65a1.14,1.14,0,0,0-1.1-.49,4.55,4.55,0,0,0-2.44,1.5,8.45,8.45,0,0,0-2,3.45A6.77,6.77,0,0,0,59,25.18v0a2.88,2.88,0,0,0,1.13,1.94,2.19,2.19,0,0,0,1.21.73,5.26,5.26,0,0,0,1.82-.13,14,14,0,0,0,2-.5A12.09,12.09,0,0,0,67,26.54a17.55,17.55,0,0,1,2.53-.91c.62-.14,1-.1,1,.15a14.83,14.83,0,0,1-.76,1.91c-.52,1.18-1.14,2.56-1.86,4.11s-1.46,3.08-2,4.44-.93,2.27-1,2.63a3.36,3.36,0,0,0,0,2.18A1.57,1.57,0,0,0,66,42.16a2,2,0,0,0,.7.16c.05,0,.14,0,.26,0a3.5,3.5,0,0,0,1.3-.53,7,7,0,0,0,1.41-.88,20.47,20.47,0,0,0,2-1.48,34.29,34.29,0,0,0,2.9-2.84c1.19-1.29,2.44-2.7,3.69-4.21s2.37-2.9,3.49-4.34,2-2.59,2.63-3.54c.32-.47.56-.89.77-1.22a1,1,0,0,0,.19-.5.14.14,0,0,1-.06-.07c-.09-.08-.29,0-.6.25a32.77,32.77,0,0,0-2.46,2.27c-.68.7-1.58,1.55-2.63,2.64s-2.4,2.4-4,3.95c-2,2-3.72,3.69-5.2,5.05s-2.37,2-2.52,1.9,0-.57.43-1.56.87-2,1.5-3.34l1.57-3.43c.42-1,.77-1.82,1-2.55a7.9,7.9,0,0,0,.65-3,2.75,2.75,0,0,0-.92-1.63,2.87,2.87,0,0,0-2.07-.39,18.75,18.75,0,0,0-4,1.2l-1.5.56c-.33.13-.5.15-.55.07s0-.21.23-.46a9.25,9.25,0,0,0,.77-.92,4.28,4.28,0,0,0,1-2.66A12.2,12.2,0,0,0,65.71,18.84Z"/><path class="cls-1" d="M89.43,20.42a4.32,4.32,0,0,1,1.12-.54c.26,0,.42-.1.59-.13h.12c.13,0,.22.05.24.13a.58.58,0,0,1-.09.32,2.58,2.58,0,0,1-.62.73,6,6,0,0,1-1.72.88,5,5,0,0,1-.79.15l-.13,0c-.12,0-.17,0-.18-.1s.06-.18.24-.38A8,8,0,0,1,89.43,20.42Zm3.95.35a2,2,0,0,0,.15-2.25,2.36,2.36,0,0,0-2.08-.78l-.29,0-.42.06-.74.23a9.55,9.55,0,0,0-3.44,2.33,12.42,12.42,0,0,0-2.47,3.47,6.18,6.18,0,0,0-.63,1.89,4.11,4.11,0,0,0-.06,1.38l0,.29a3.55,3.55,0,0,0,1.12,1.85,4.1,4.1,0,0,0,2,1.23,9,9,0,0,0,3.59.26l.5-.07A16.27,16.27,0,0,0,95,29.4a24.14,24.14,0,0,0,2.59-1.35c.86-.55,1.77-1.1,2.62-1.74a27.23,27.23,0,0,0,4-3.35c1.13-1.1,1.66-1.86,1.64-2.32v-.09a2.46,2.46,0,0,1-.09-.29l-.11-.15a21.06,21.06,0,0,0-1.9,1c-1.23.68-2.66,1.53-4.27,2.57-3.33,2.18-6,3.53-8,4a8.36,8.36,0,0,1-5,0,1.64,1.64,0,0,1-1-1.15,2.71,2.71,0,0,1,.25-1.83,1.71,1.71,0,0,1,.65-.87A5.28,5.28,0,0,1,88,23.41a15.6,15.6,0,0,0,3.44-1.13A4.31,4.31,0,0,0,93.38,20.77Z"/><path class="cls-1" d="M123.54,14a1,1,0,0,1,.09-.57c.05,0,.08-.06.17-.07a.32.32,0,0,1,.26.05c0,.12.08.24.1.37v.08l.06.47a2.45,2.45,0,0,1-.06.78c0,.22-.08.31-.13.31s0,0,0,0-.2-.15-.28-.48a1.27,1.27,0,0,1-.14-.66Zm2.38-.17a3.56,3.56,0,0,0-1-2.46,2.09,2.09,0,0,0-1.26-.38c-.08,0-.12.06-.16.06a.76.76,0,0,0-.36.18l-.42.32a2.76,2.76,0,0,0-.57.85,3.19,3.19,0,0,0-.34.94,5.28,5.28,0,0,0,.39,2.43,8.4,8.4,0,0,0,1.06,2.38c.16.23.06.76-.26,1.49a16.8,16.8,0,0,1-1.3,2.32c-.4.53-.8,1-1.16,1.49a8.72,8.72,0,0,1-1.17,1.11,2.22,2.22,0,0,1-1.42.59,1.42,1.42,0,0,1-1-.37,4.43,4.43,0,0,1-1.19-2.4c-.24-1.08-.47-2.12-.64-3a26.71,26.71,0,0,0-1.19-4.8,1.36,1.36,0,0,0-1.6-.71c-.5.11-1,.56-1.44,1.31a27.72,27.72,0,0,0-1.93,4c-.77,1.82-1.29,2.7-1.59,2.7s-.58-.81-.82-2.54c-.16-1.09-.26-1.8-.35-2.13s-.27-.39-.46-.28c-.48.28-.84,1.06-1.09,2.34a11.16,11.16,0,0,0-.19,3.84l0,.21c.25,1.72.69,2.72,1.32,3a2.46,2.46,0,0,0,1.54.29,4,4,0,0,0,1.79-1.27,11.15,11.15,0,0,0,1.79-2.52,6.9,6.9,0,0,1,.73-1.22c.21-.29.4-.44.49-.45a1.48,1.48,0,0,1,.39.63,12.07,12.07,0,0,1,.36,1.36A8,8,0,0,0,114,26a4.39,4.39,0,0,0,2,1.74,3.21,3.21,0,0,0,2.11.39,4.57,4.57,0,0,0,2.25-1,17.67,17.67,0,0,0,4.36-6.09c.24-.46.4-.78.54-1,.81.23,1.39.41,1.83.52a7.83,7.83,0,0,0,3,.17,19.84,19.84,0,0,0,3.8-.71A25.49,25.49,0,0,0,139,18a9.53,9.53,0,0,0,3.42-2.49,1.94,1.94,0,0,0,.34-.65l0,0a15.9,15.9,0,0,0-1.65.44c-.74.24-1.39.46-2,.62s-1.06.37-1.47.51c-1,.31-1.76.59-2.25.75a11.66,11.66,0,0,1-1.94.52,13.37,13.37,0,0,1-5.36.5c-1.48-.17-2.15-.68-2.06-1.55,0-.21,0-.6,0-1.15S126,14.38,125.92,13.83Z"/><path class="cls-2" d="M42.71,28.6A32.05,32.05,0,0,1,45,24.38a32.59,32.59,0,0,1,2.77-4,43.72,43.72,0,0,1,5.42-5.9C55,13,56.44,12.11,57.53,12l.13,0a2.22,2.22,0,0,1,1,.2,2.25,2.25,0,0,1,.56.91l0,.34a5.82,5.82,0,0,1-.16,2.2,15.21,15.21,0,0,1-1.31,3.18,37.79,37.79,0,0,1-4.9,6.86,51.66,51.66,0,0,1-7.29,6.85c-1.16.89-2.13,1.62-3,2.26s-1.32.95-1.32.95c-.3,0-.45-.11-.5-.48a4.78,4.78,0,0,1,.17-1.57A20,20,0,0,1,42.71,28.6ZM46.82,7.34a25.94,25.94,0,0,0,1.07-5.2c0-.85-.35-1.28-1-1.18-.42.06-.94.94-1.6,2.66s-1.7,4.65-3,8.85c-1.09,3.49-2,7-2.82,10.67a88.79,88.79,0,0,0-1.81,9.93,22.88,22.88,0,0,0-.46,5.59c0,1.79.06,3.16.11,4.09.26,1.85.51,2.71.8,2.67h0c.25,0,.62-1.12,1-3.23.28-1.33.48-2.34.64-3l3.69-2.06a42.7,42.7,0,0,0,5.72-3.8,52.06,52.06,0,0,0,5.19-5.05,32.66,32.66,0,0,0,6.59-10.35,10.86,10.86,0,0,0,.82-5.17A5.2,5.2,0,0,0,61,10.4a3.8,3.8,0,0,0-2.09-1.2,4.94,4.94,0,0,0-2.72.17,15.44,15.44,0,0,0-5,3.36,44.75,44.75,0,0,0-5.48,6.64c-.57.8-1,1.43-1.41,1.86s-.64.65-.66.48A11.62,11.62,0,0,1,44,19.26c.32-1.41.68-3.09,1.17-5.09.24-1.06.51-2.17.82-3.32S46.52,8.5,46.82,7.34Z"/><path class="cls-2" d="M62.72,22.66a5.69,5.69,0,0,1,.8-2.21c.45-.75.82-1.19,1.15-1.24h0s.09,0,.1.11a2.46,2.46,0,0,1-.09.61,7.93,7.93,0,0,1-.65,1.46,5.67,5.67,0,0,1-.71,1,.65.65,0,0,1-.44.28A.14.14,0,0,1,62.72,22.66Zm4-4.77a4.37,4.37,0,0,0-.68-1.19,1.16,1.16,0,0,0-1.1-.48,4.39,4.39,0,0,0-2.44,1.5,8.39,8.39,0,0,0-2,3.45A6.73,6.73,0,0,0,60,24.23v.05a2.88,2.88,0,0,0,1.12,1.93,2.19,2.19,0,0,0,1.22.73,5,5,0,0,0,1.82-.13,12.62,12.62,0,0,0,2-.49A12,12,0,0,0,68,25.59a18.86,18.86,0,0,1,2.53-.91c.62-.13,1-.09,1,.16a12,12,0,0,1-.76,1.9c-.51,1.19-1.13,2.56-1.86,4.12s-1.45,3.07-2,4.44-.92,2.27-1,2.63a3.36,3.36,0,0,0,0,2.18,1.57,1.57,0,0,0,1.23,1.11,2.18,2.18,0,0,0,.7.16s.13,0,.26,0a3.76,3.76,0,0,0,1.3-.52A8.11,8.11,0,0,0,70.76,40a20.47,20.47,0,0,0,2-1.48,36.6,36.6,0,0,0,2.89-2.85c1.19-1.28,2.45-2.7,3.69-4.2s2.38-2.9,3.5-4.34,2-2.6,2.63-3.54c.32-.48.56-.89.77-1.22a1.07,1.07,0,0,0,.19-.5.19.19,0,0,1-.06-.08c-.09-.07-.29,0-.6.26s-1.19,1-2.47,2.27c-.67.69-1.58,1.55-2.62,2.64s-2.4,2.39-4,3.94c-2,2-3.72,3.69-5.2,5.06S69.11,38,69,37.83s.05-.56.43-1.56.86-2.05,1.5-3.33l1.57-3.43c.42-1,.77-1.83,1.05-2.55a7.69,7.69,0,0,0,.64-3,2.66,2.66,0,0,0-.91-1.63,2.92,2.92,0,0,0-2.07-.4,19.34,19.34,0,0,0-4,1.21c-.73.27-1.26.47-1.51.55s-.49.16-.54.08,0-.21.23-.46.48-.54.77-.92a4.21,4.21,0,0,0,1-2.66A12.23,12.23,0,0,0,66.76,17.89Z"/><path class="cls-2" d="M90.48,19.48a4.08,4.08,0,0,1,1.12-.55c.25,0,.42-.1.58-.12l.13,0c.13,0,.22.06.23.14a.47.47,0,0,1-.08.31,2.33,2.33,0,0,1-.63.73,6,6,0,0,1-1.71.89,7,7,0,0,1-.79.15l-.13,0c-.13,0-.17,0-.19-.1s.06-.18.25-.38A8,8,0,0,1,90.48,19.48Zm3.94.34a2,2,0,0,0,.16-2.25,2.35,2.35,0,0,0-2.08-.77l-.29,0-.42.06-.74.23a9.44,9.44,0,0,0-3.44,2.32,12.46,12.46,0,0,0-2.47,3.48,5.79,5.79,0,0,0-.63,1.88,4.11,4.11,0,0,0-.06,1.38l0,.3a3.59,3.59,0,0,0,1.12,1.85,4,4,0,0,0,2,1.22,8.76,8.76,0,0,0,3.59.27l.5-.07A16.58,16.58,0,0,0,96,28.46a25.14,25.14,0,0,0,2.6-1.35c.86-.55,1.77-1.11,2.62-1.74a27.86,27.86,0,0,0,4-3.35c1.13-1.1,1.67-1.86,1.65-2.33l0-.08c0-.09-.07-.21-.08-.29l-.11-.16c-.08,0-.72.36-1.91,1s-2.65,1.53-4.26,2.57c-3.33,2.18-6,3.54-8,4a8.4,8.4,0,0,1-5,0,1.63,1.63,0,0,1-1-1.14,2.74,2.74,0,0,1,.25-1.84,1.69,1.69,0,0,1,.65-.86A5,5,0,0,1,89,22.47a16.05,16.05,0,0,0,3.43-1.13A4.15,4.15,0,0,0,94.42,19.82Z"/><path class="cls-2" d="M124.59,13.05a1.05,1.05,0,0,1,.09-.57s.08-.05.16-.06a.3.3,0,0,1,.27,0c0,.13.08.25.09.38l0,.08.06.46a2.45,2.45,0,0,1-.06.78c-.06.22-.09.31-.13.32s0,0,0,0-.19-.14-.28-.47a1.18,1.18,0,0,1-.13-.67Zm2.38-.16a3.61,3.61,0,0,0-1-2.47,2.12,2.12,0,0,0-1.25-.38c-.08,0-.12.06-.16.07a.57.57,0,0,0-.36.18c-.16.1-.27.21-.43.31a3,3,0,0,0-.56.85,3,3,0,0,0-.34,1,5.38,5.38,0,0,0,.38,2.43,8.45,8.45,0,0,0,1.07,2.37c.16.24.06.77-.26,1.5a16.8,16.8,0,0,1-1.3,2.32c-.4.53-.8,1-1.16,1.49a9.45,9.45,0,0,1-1.18,1.11,2.18,2.18,0,0,1-1.41.58,1.38,1.38,0,0,1-1-.37,4.37,4.37,0,0,1-1.19-2.4c-.24-1.08-.47-2.11-.64-3a26.21,26.21,0,0,0-1.19-4.8,1.36,1.36,0,0,0-1.6-.72,2.68,2.68,0,0,0-1.44,1.32,27,27,0,0,0-1.93,3.95c-.77,1.82-1.29,2.71-1.59,2.71s-.58-.82-.83-2.54c-.15-1.09-.25-1.8-.34-2.13s-.27-.39-.47-.28c-.47.28-.83,1.06-1.08,2.33a11.17,11.17,0,0,0-.19,3.84l0,.21c.24,1.72.69,2.73,1.32,3a2.41,2.41,0,0,0,1.54.3,4.08,4.08,0,0,0,1.79-1.28,10.93,10.93,0,0,0,1.79-2.52,7.89,7.89,0,0,1,.72-1.21c.22-.29.41-.45.5-.46a1.47,1.47,0,0,1,.38.63,13.25,13.25,0,0,1,.37,1.36A8,8,0,0,0,115.06,25a4.29,4.29,0,0,0,2,1.74,3.19,3.19,0,0,0,2.1.38,4.56,4.56,0,0,0,2.25-1A17.75,17.75,0,0,0,125.74,20c.23-.47.4-.79.54-1,.8.23,1.39.4,1.83.51a7.6,7.6,0,0,0,3,.18,20.65,20.65,0,0,0,3.8-.71A25.49,25.49,0,0,0,140.05,17a9.53,9.53,0,0,0,3.42-2.49,1.73,1.73,0,0,0,.33-.65l0,0c-.09,0-.67.14-1.65.45l-2,.62c-.57.21-1.06.36-1.47.51-1,.31-1.76.59-2.25.74a12.64,12.64,0,0,1-1.94.53,13.6,13.6,0,0,1-5.37.5c-1.48-.18-2.15-.68-2.05-1.55,0-.22,0-.6,0-1.16S127,13.44,127,12.89Z"/><path class="cls-3" d="M43.76,27.65a33.16,33.16,0,0,1,2.31-4.22,33.46,33.46,0,0,1,2.78-4,44.33,44.33,0,0,1,5.42-5.9A9.69,9.69,0,0,1,58.58,11l.13,0a2.37,2.37,0,0,1,1,.21,2.07,2.07,0,0,1,.55.91l.05.33a5.89,5.89,0,0,1-.16,2.21,15.43,15.43,0,0,1-1.31,3.18,37.75,37.75,0,0,1-4.9,6.85,50.64,50.64,0,0,1-7.3,6.85c-1.15.89-2.12,1.63-3,2.26s-1.32,1-1.32,1c-.3,0-.45-.11-.5-.49A4.94,4.94,0,0,1,42,32.7,20.55,20.55,0,0,1,43.76,27.65ZM47.87,6.4a26.08,26.08,0,0,0,1.07-5.2c0-.86-.35-1.28-1-1.19-.42.06-.94,1-1.6,2.67s-1.7,4.65-3,8.85c-1.09,3.49-2,7-2.82,10.67a88.79,88.79,0,0,0-1.81,9.93,22.84,22.84,0,0,0-.46,5.58c0,1.8.06,3.16.11,4.1.26,1.85.51,2.71.8,2.67h0c.25,0,.61-1.11,1.05-3.23.28-1.32.48-2.33.64-3l3.69-2.06a41.94,41.94,0,0,0,5.71-3.8,50.15,50.15,0,0,0,5.2-5.06,32.62,32.62,0,0,0,6.59-10.34,11,11,0,0,0,.82-5.17A5.15,5.15,0,0,0,62,9.46a3.74,3.74,0,0,0-2.09-1.2,4.94,4.94,0,0,0-2.72.17,15.39,15.39,0,0,0-5,3.35,45.17,45.17,0,0,0-5.48,6.64c-.58.81-1,1.43-1.41,1.87s-.64.64-.66.48A11.62,11.62,0,0,1,45,18.32c.32-1.42.68-3.1,1.17-5.09.23-1.06.51-2.17.82-3.33S47.56,7.55,47.87,6.4Z"/><path class="cls-3" d="M63.77,21.71a5.74,5.74,0,0,1,.8-2.21c.45-.75.82-1.18,1.15-1.23h0s.09,0,.11.12a3.16,3.16,0,0,1-.09.61,9,9,0,0,1-.65,1.46,5.52,5.52,0,0,1-.72,1,.6.6,0,0,1-.43.27C63.9,21.78,63.82,21.79,63.77,21.71Zm4-4.76a3.92,3.92,0,0,0-.69-1.19A1.15,1.15,0,0,0,66,15.27a4.53,4.53,0,0,0-2.45,1.5,8.33,8.33,0,0,0-2,3.45,6.77,6.77,0,0,0-.51,3.07v0a3,3,0,0,0,1.13,1.94,2.25,2.25,0,0,0,1.22.73,5,5,0,0,0,1.82-.13,15.32,15.32,0,0,0,2-.49,13.68,13.68,0,0,0,1.82-.73,18.86,18.86,0,0,1,2.53-.91c.62-.13,1-.1,1,.16a14,14,0,0,1-.76,1.9C71.32,27,70.69,28.36,70,29.91s-1.45,3.08-2,4.44S67,36.62,66.9,37a3.36,3.36,0,0,0,0,2.18,1.57,1.57,0,0,0,1.22,1.12,2.33,2.33,0,0,0,.71.15s.13,0,.26,0a3.66,3.66,0,0,0,1.29-.52A7.38,7.38,0,0,0,71.81,39a18.56,18.56,0,0,0,2-1.48,36.08,36.08,0,0,0,2.89-2.84c1.19-1.28,2.45-2.7,3.69-4.2s2.38-2.91,3.5-4.35,2-2.59,2.63-3.54c.32-.47.56-.89.77-1.22a.87.87,0,0,0,.18-.5.15.15,0,0,1,0-.07c-.1-.08-.29,0-.61.25s-1.18,1-2.46,2.28c-.67.69-1.58,1.55-2.62,2.63s-2.41,2.4-4,4c-2,2-3.72,3.69-5.19,5.05s-2.37,2-2.52,1.9,0-.57.42-1.56.87-2,1.5-3.34,1.12-2.42,1.58-3.43.77-1.82,1-2.54A8.11,8.11,0,0,0,75.2,23a2.74,2.74,0,0,0-.91-1.63A2.87,2.87,0,0,0,72.22,21a19.83,19.83,0,0,0-4,1.2c-.73.28-1.26.48-1.51.56s-.49.15-.54.07,0-.21.23-.46.48-.54.77-.92a4.2,4.2,0,0,0,1-2.66A12.33,12.33,0,0,0,67.81,17Z"/><path class="cls-3" d="M91.53,18.53A4.32,4.32,0,0,1,92.65,18c.25,0,.41-.1.58-.12l.13,0c.13,0,.22,0,.23.14a.64.64,0,0,1-.08.31,2.33,2.33,0,0,1-.63.73,5.88,5.88,0,0,1-1.71.88,7.76,7.76,0,0,1-.8.16h-.12c-.13,0-.18,0-.19-.1s.06-.18.25-.38A7.14,7.14,0,0,1,91.53,18.53Zm3.94.35a2,2,0,0,0,.16-2.25,2.4,2.4,0,0,0-2.08-.78l-.3,0-.42.06-.73.23a9.6,9.6,0,0,0-3.44,2.33A12.42,12.42,0,0,0,86.19,22a5.69,5.69,0,0,0-.63,1.89,4.11,4.11,0,0,0-.06,1.38l0,.29a3.67,3.67,0,0,0,1.11,1.86,4.13,4.13,0,0,0,2,1.22,9,9,0,0,0,3.59.26l.51-.07a16.21,16.21,0,0,0,4.35-1.3,23.32,23.32,0,0,0,2.6-1.35c.86-.55,1.77-1.1,2.62-1.73a27.86,27.86,0,0,0,4-3.35c1.13-1.1,1.67-1.86,1.64-2.33v-.09c0-.08-.07-.2-.08-.28l-.11-.16c-.08,0-.72.36-1.91,1s-2.65,1.53-4.26,2.57c-3.33,2.18-6,3.53-8,4a8.4,8.4,0,0,1-5,0,1.68,1.68,0,0,1-1-1.15,2.79,2.79,0,0,1,.26-1.83,1.65,1.65,0,0,1,.65-.86,4.91,4.91,0,0,1,1.48-.47A15.5,15.5,0,0,0,93.5,20.4,4.33,4.33,0,0,0,95.47,18.88Z"/><path class="cls-3" d="M125.64,12.11a.88.88,0,0,1,.09-.57s.08-.06.16-.07a.34.34,0,0,1,.27,0c0,.13.07.25.09.37V12l.07.46a2.78,2.78,0,0,1-.06.78c-.06.22-.09.31-.13.31s0,0,0,0-.19-.15-.28-.48a1.17,1.17,0,0,1-.13-.66Zm2.37-.17a3.51,3.51,0,0,0-1-2.46,2.05,2.05,0,0,0-1.25-.38c-.08,0-.12.06-.16.06a.69.69,0,0,0-.36.18l-.43.32a2.73,2.73,0,0,0-.56.85,2.89,2.89,0,0,0-.34,1,5.36,5.36,0,0,0,.38,2.42,8.38,8.38,0,0,0,1.07,2.38c.16.23.06.76-.27,1.49a16.42,16.42,0,0,1-1.3,2.33c-.39.52-.79,1-1.16,1.49a8,8,0,0,1-1.17,1.1,2.2,2.2,0,0,1-1.41.59,1.4,1.4,0,0,1-1-.37,4.37,4.37,0,0,1-1.19-2.4c-.24-1.08-.47-2.12-.64-3A27.18,27.18,0,0,0,116,12.66a1.36,1.36,0,0,0-1.6-.72c-.5.11-1,.56-1.44,1.32a27,27,0,0,0-1.93,4c-.77,1.82-1.29,2.7-1.59,2.7s-.58-.81-.83-2.53c-.15-1.09-.25-1.81-.34-2.14s-.27-.39-.47-.28c-.47.29-.83,1.06-1.08,2.34a10.92,10.92,0,0,0-.19,3.84l0,.21c.24,1.72.68,2.73,1.32,3a2.55,2.55,0,0,0,1.54.3,4.16,4.16,0,0,0,1.79-1.28A10.82,10.82,0,0,0,113,20.83a9.59,9.59,0,0,1,.73-1.22c.22-.29.41-.44.49-.45a1.31,1.31,0,0,1,.39.63,12,12,0,0,1,.37,1.36,7.86,7.86,0,0,0,1.18,2.91,4.26,4.26,0,0,0,2,1.74,3.17,3.17,0,0,0,2.11.39,4.6,4.6,0,0,0,2.25-1,17.7,17.7,0,0,0,4.37-6.1c.23-.46.4-.78.54-1,.8.23,1.38.41,1.83.52a7.63,7.63,0,0,0,3,.17A20.34,20.34,0,0,0,136,18a26,26,0,0,0,5.13-1.92,9.51,9.51,0,0,0,3.41-2.5,1.82,1.82,0,0,0,.34-.64l0,0a16.08,16.08,0,0,0-1.65.45c-.73.23-1.39.45-2,.62l-1.47.5c-1,.31-1.76.59-2.25.75a12.64,12.64,0,0,1-1.94.53,13.39,13.39,0,0,1-5.37.49c-1.48-.17-2.15-.68-2.06-1.55,0-.21,0-.6,0-1.15S128.05,12.5,128,11.94Z"/><path class="cls-1" d="M.93,81.58a1.72,1.72,0,0,0,.68,0,9.92,9.92,0,0,0,2.08-.72A34.53,34.53,0,0,0,9,77.58c2.35-1.66,4.53-3.07,6.53-4.27a63.12,63.12,0,0,1,5.83-3.14A10.27,10.27,0,0,0,24,68.65c0-.09.11-.17.1-.24s-.4-.25-1.1-.2a19.81,19.81,0,0,0-6.47,2.16,67,67,0,0,0-8.71,5.38,25.09,25.09,0,0,1-2.27,1.5,4,4,0,0,1-1.24.64c-.21,0,.06-.68.8-2.13s1.74-3.11,3-5.18c.67-1.08,1.36-2.19,2.15-3.4s1.49-2.32,2.29-3.46c2.21-3.23,3.87-5.79,5-7.7a24.29,24.29,0,0,0,2.22-4.27c.86-2.43.54-4.08-1-4.92a4.72,4.72,0,0,0-3-.37,12.93,12.93,0,0,0-3.39,1.19A27.68,27.68,0,0,0,8,50.48a21.48,21.48,0,0,0-3.68,3.38C3.2,55.2,2.77,56,3.05,56.15s1-.29,2.4-1.52a42.44,42.44,0,0,1,4.11-3.21,13.71,13.71,0,0,1,4-2c.68-.19,1.3-.33,1.82-.42a1.7,1.7,0,0,1,1,0c.64.39.52,1.55-.39,3.49a95.64,95.64,0,0,1-6,9.65q-2.29,3.39-4.39,6.74C4.15,71.16,3,73.1,2.07,74.76c-.49.87-.93,1.65-1.25,2.28a15.88,15.88,0,0,0-.59,1.49,3.57,3.57,0,0,0-.18,1.85l0,.13C.22,81.13.49,81.48.93,81.58Z"/><path class="cls-1" d="M26,57.45a.69.69,0,0,0,.34.29.36.36,0,0,0,.3.09c.21,0,.5-.4.93-1.19a5.5,5.5,0,0,0,.65-1.82,1.54,1.54,0,0,0,0-.43,1.22,1.22,0,0,0-.8-1,1.31,1.31,0,0,0-.66-.1,1,1,0,0,0-.72.59,3.62,3.62,0,0,0-.32,1.83,4.33,4.33,0,0,0,0,1.06A1.19,1.19,0,0,0,26,57.45Zm-.43,10.86a3.13,3.13,0,0,0,1.38.58,3.69,3.69,0,0,0,.7-.09c.41-.07,1-.17,1.75-.37a20.12,20.12,0,0,0,3.19-1.09c1.34-.52,2.69-1.14,4.1-1.81s2.66-1.28,4-2a29.65,29.65,0,0,0,3-1.77,8.72,8.72,0,0,0,1-.7c.25-.19.36-.35.35-.45s-.77-.12-2.19.34-3.85,1.38-7.29,2.69c-1.67.64-3.18,1.19-4.59,1.68a24,24,0,0,1-2.67.82c-1,.18-1.66.07-1.91-.31s-.34-1.4-.27-3c0-.79,0-1.47.07-2s0-.86,0-.9,0-.06-.13-.12a1,1,0,0,1-.26-.09h-.07c-.2.07-.4.39-.65,1A23.85,23.85,0,0,0,24.35,63c-.11.59-.19,1.14-.24,1.68a3.93,3.93,0,0,0,0,1.32l0,.21a3.62,3.62,0,0,0,.35,1.19A3.2,3.2,0,0,0,25.55,68.31Z"/><path class="cls-1" d="M42,82.59a13,13,0,0,1,.9-2.26c.38-.85.8-1.7,1.29-2.57a35.8,35.8,0,0,1,2-3.52c.67-1,1.11-1.58,1.36-1.62h.06c0,.07.09.1.1.17a6,6,0,0,1-.4,2c-.41,1.35-.91,2.75-1.47,4.24-.4,1-.8,2-1.19,2.8a16.2,16.2,0,0,1-1,1.93c-.8,1.14-1.38,1.73-1.72,1.79-.11,0-.18,0-.22,0a.58.58,0,0,1-.17-.33A6.72,6.72,0,0,1,42,82.59Zm7.92-26.26a.53.53,0,0,0-.26-.27c-.07,0-.15,0-.22,0a1.85,1.85,0,0,0-.43.15,1.82,1.82,0,0,1-.37.13,2.49,2.49,0,0,1-.43.22,8.75,8.75,0,0,0-3.47,2.95c-.91,1.33-1.22,2.45-.88,3.39a1.38,1.38,0,0,0,1.75,1,6.15,6.15,0,0,0,2.93-1.78,9.94,9.94,0,0,1,1-.86c.32-.23.48-.33.56-.31s.09.34,0,.85S50,63,49.92,63.7a11.89,11.89,0,0,1-.63,2.56,14,14,0,0,1-1.61,2.2,45.43,45.43,0,0,0-5.61,8.13,23.36,23.36,0,0,0-2.75,7.1,7.06,7.06,0,0,0-.1,2.51.37.37,0,0,0,.07.2A1.9,1.9,0,0,0,40.41,88a1.83,1.83,0,0,0,1.31.16,2.6,2.6,0,0,0,.51-.12,5.14,5.14,0,0,0,2-1.27,18.14,18.14,0,0,0,3.18-5.5,57.91,57.91,0,0,0,2.8-8.92c.2-.89.44-1.79.64-2.64s.41-1.35.51-1.62A11.61,11.61,0,0,1,53,66c1-1,2-2.13,3.23-3.33.79-.78,1.55-1.52,2.32-2.26s1.38-1.23,1.88-1.64c.31-.27.62-.57.86-.82s.29-.37.27-.48-.68,0-1.78.6A47.13,47.13,0,0,0,55.54,61L53.2,62.7a5.09,5.09,0,0,1-1.06.68c-.07,0-.07-.2-.07-.63s0-.81,0-1.32a18.58,18.58,0,0,0,0-2.78c-.07-.81-.3-1.3-.64-1.46s-.86,0-1.34.52S48.89,59,48,59.83a13.74,13.74,0,0,1-1.88,1.5c-.45.29-.68.37-.71.23-.13-.33,0-.78.43-1.42a7.32,7.32,0,0,1,1.51-1.76,9.11,9.11,0,0,1,1-.77,7,7,0,0,1,1-.52,1.36,1.36,0,0,0,.58-.32A.54.54,0,0,0,49.89,56.33Z"/><path class="cls-1" d="M58.6,79.71a12.86,12.86,0,0,1,.89-2.26c.39-.85.81-1.7,1.3-2.57a37,37,0,0,1,2-3.52c.68-1,1.12-1.58,1.36-1.62h.07c.05.06.09.09.1.16a6.28,6.28,0,0,1-.4,2c-.41,1.35-.92,2.76-1.48,4.24-.39,1-.8,2-1.18,2.81a16.49,16.49,0,0,1-1.06,1.92c-.8,1.14-1.37,1.74-1.72,1.8-.1,0-.17,0-.22,0a.49.49,0,0,1-.16-.33A6.36,6.36,0,0,1,58.6,79.71Zm7.91-26.26a.49.49,0,0,0-.26-.27H66a1.91,1.91,0,0,0-.44.15,1.26,1.26,0,0,1-.37.13,1.88,1.88,0,0,1-.42.22,8.78,8.78,0,0,0-3.48,3c-.91,1.33-1.21,2.45-.87,3.39a1.38,1.38,0,0,0,1.74,1,6.19,6.19,0,0,0,2.93-1.79,11.42,11.42,0,0,1,1-.86c.31-.23.47-.33.55-.31s.09.34,0,.85-.11,1.2-.21,1.89a12.53,12.53,0,0,1-.62,2.56,14.75,14.75,0,0,1-1.61,2.2,45.43,45.43,0,0,0-5.61,8.13,23.26,23.26,0,0,0-2.76,7.1,7.3,7.3,0,0,0-.1,2.51.48.48,0,0,0,.07.2A1.9,1.9,0,0,0,57,85.07a1.84,1.84,0,0,0,1.31.17,3.92,3.92,0,0,0,.52-.13,4.93,4.93,0,0,0,2-1.27A17.94,17.94,0,0,0,64,78.34a56.83,56.83,0,0,0,2.8-8.92c.2-.89.44-1.78.65-2.64a15.77,15.77,0,0,1,.5-1.62,12.79,12.79,0,0,1,1.64-2q1.45-1.53,3.23-3.33l2.32-2.25c.73-.7,1.39-1.24,1.89-1.65a11.22,11.22,0,0,0,.85-.82c.18-.21.29-.37.28-.48s-.69,0-1.79.6a46.25,46.25,0,0,0-4.22,2.94l-2.35,1.68a4.91,4.91,0,0,1-1,.68c-.07,0-.07-.2-.08-.62s0-.82.06-1.33a20,20,0,0,0,0-2.78c-.07-.81-.3-1.3-.65-1.46s-.85,0-1.33.52-1.28,1.29-2.2,2.13a16.52,16.52,0,0,1-1.87,1.5c-.45.29-.69.36-.71.22-.13-.33,0-.78.43-1.42A7.11,7.11,0,0,1,64,55.5a10.58,10.58,0,0,1,1-.77,6.38,6.38,0,0,1,.94-.52,1.3,1.3,0,0,0,.59-.32A.58.58,0,0,0,66.51,53.45Z"/><path class="cls-1" d="M78.77,73.05l0-.1a3,3,0,0,1,.53-1.7,19.3,19.3,0,0,1,1.62-2.52c.35-.49.7-.94,1-1.36l1-1.13,0,0a2.67,2.67,0,0,1-.24.65c-.21.46-.47,1-.75,1.62l-.51,1c-.19.35-.35.67-.48.94a12.1,12.1,0,0,1-1.51,2.39c-.24.26-.39.43-.49.45S78.8,73.26,78.77,73.05Zm11-24.9a2,2,0,0,0-.4-.07H89l-.1,0a4.92,4.92,0,0,0-1.65,1.18q-1,1-2.85,3.27A49.52,49.52,0,0,1,80.38,57c-.87.78-1.39,1-1.6.63a2.09,2.09,0,0,1-.11-1,10.65,10.65,0,0,1,.14-1.87,10.42,10.42,0,0,0,.09-2.37c-.06-.31-.28-.38-.67-.17a2.84,2.84,0,0,0-.52,1.31A24.17,24.17,0,0,0,77.13,56c-.11.59-.17,1.1-.23,1.57a4,4,0,0,0,0,1.07,1.89,1.89,0,0,0,.86,1.27,1.94,1.94,0,0,0,1.49.38,5.83,5.83,0,0,0,2.4-1.37A29.07,29.07,0,0,0,85,55.5c.59-.71,1.16-1.31,1.64-1.82s.7-.73.77-.7a10.21,10.21,0,0,1-.3,1.33c-.21.82-.49,1.72-.78,2.7s-.48,1.54-.72,2.19a9.23,9.23,0,0,1-.49,1.29,9.61,9.61,0,0,1-.76,1q-.72.81-1.53,1.65a46.76,46.76,0,0,0-4,5,13.63,13.63,0,0,0-2.16,4.15,6.59,6.59,0,0,0-.37,2.41v.07A1.78,1.78,0,0,0,77,76a2,2,0,0,0,1.64.43,4.46,4.46,0,0,0,2.46-1.85c1.46-1.82,3.13-5.14,5-10,.49-1.29.89-2.25,1.14-2.9l5.88-5.29,3.55-3.14c.8-.71,1.39-1.2,1.73-1.55a.34.34,0,0,0,.16-.27s0-.07-.09-.13a.63.63,0,0,0-.54,0c-.4.14-1,.42-1.82.77A17.89,17.89,0,0,0,93,54c-1.06.82-2,1.56-2.81,2.23s-1.33,1.16-1.49,1.25,0-.31.25-1.18.52-1.73.81-2.74a18.36,18.36,0,0,0,.75-3.87A1.53,1.53,0,0,0,89.73,48.15Z"/><path class="cls-2" d="M1.78,80.77a1.67,1.67,0,0,0,.67,0A9.92,9.92,0,0,0,4.53,80a35,35,0,0,0,5.35-3.27c2.34-1.66,4.52-3.07,6.52-4.27a64.44,64.44,0,0,1,5.83-3.14,10.27,10.27,0,0,0,2.62-1.52.36.36,0,0,0,.1-.23c0-.18-.4-.26-1.1-.2a19.47,19.47,0,0,0-6.46,2.15A66.6,66.6,0,0,0,8.67,75,27.1,27.1,0,0,1,6.4,76.44a3.4,3.4,0,0,1-1.24.64C5,77.12,5.22,76.4,6,75s1.74-3.11,3-5.18c.67-1.08,1.36-2.19,2.15-3.4s1.49-2.32,2.29-3.45c2.22-3.24,3.87-5.8,5-7.71a24.43,24.43,0,0,0,2.21-4.27c.86-2.42.54-4.08-1-4.92a4.72,4.72,0,0,0-3-.37,13.12,13.12,0,0,0-3.38,1.19,27.94,27.94,0,0,0-4.39,2.83A21.62,21.62,0,0,0,5.2,53.05C4,54.39,3.61,55.17,3.89,55.34s1.05-.29,2.4-1.52a40.8,40.8,0,0,1,4.11-3.2,13.81,13.81,0,0,1,4-2,18,18,0,0,1,1.81-.42,1.79,1.79,0,0,1,1,0c.64.39.52,1.55-.39,3.49a95.64,95.64,0,0,1-6,9.65q-2.29,3.39-4.39,6.74C5,70.35,3.83,72.29,2.91,74c-.49.87-.92,1.66-1.24,2.28a14.11,14.11,0,0,0-.6,1.49,3.69,3.69,0,0,0-.18,1.85l0,.14C1.06,80.32,1.33,80.67,1.78,80.77Z"/><path class="cls-2" d="M26.82,56.64a.73.73,0,0,0,.34.29.42.42,0,0,0,.3.1c.21,0,.5-.41.93-1.2A5.27,5.27,0,0,0,29,54a2.06,2.06,0,0,0,0-.43,1.25,1.25,0,0,0-.81-1,1.31,1.31,0,0,0-.66-.1,1,1,0,0,0-.72.59,3.76,3.76,0,0,0-.32,1.83,4.3,4.3,0,0,0,0,1.06A1.28,1.28,0,0,0,26.82,56.64ZM26.39,67.5a3.13,3.13,0,0,0,1.38.58,3.61,3.61,0,0,0,.7-.09c.41-.07,1-.17,1.75-.37a19.79,19.79,0,0,0,3.19-1.09c1.34-.51,2.69-1.14,4.1-1.81s2.67-1.28,4-2a29.65,29.65,0,0,0,3-1.77,7.84,7.84,0,0,0,.95-.7c.25-.19.37-.35.35-.45s-.77-.12-2.19.34-3.85,1.38-7.29,2.69c-1.67.64-3.18,1.19-4.59,1.68a23.31,23.31,0,0,1-2.67.82c-1,.18-1.66.07-1.9-.31s-.35-1.4-.28-3c0-.78,0-1.46.07-2s0-.86,0-.9,0-.06-.12-.12a1,1,0,0,1-.27-.09h-.07c-.2.07-.39.39-.64,1a21.37,21.37,0,0,0-.7,2.36c-.11.59-.19,1.14-.24,1.68a4.21,4.21,0,0,0,0,1.32l0,.21a3.79,3.79,0,0,0,.35,1.19A3.08,3.08,0,0,0,26.39,67.5Z"/><path class="cls-2" d="M42.82,81.78a12.86,12.86,0,0,1,.89-2.26c.38-.85.81-1.7,1.3-2.57a37,37,0,0,1,2-3.52c.68-1,1.12-1.58,1.36-1.62h.07a.54.54,0,0,1,.1.16,6.42,6.42,0,0,1-.41,2c-.4,1.35-.91,2.76-1.47,4.24-.4,1-.8,2-1.19,2.81a16.74,16.74,0,0,1-1.05,1.92c-.8,1.14-1.37,1.74-1.72,1.8-.1,0-.17,0-.22,0a.49.49,0,0,1-.16-.33A6.36,6.36,0,0,1,42.82,81.78Zm7.91-26.26a.49.49,0,0,0-.26-.27h-.21a1.91,1.91,0,0,0-.44.15,1.26,1.26,0,0,1-.37.13,2.12,2.12,0,0,1-.42.22,8.71,8.71,0,0,0-3.48,3c-.91,1.33-1.21,2.45-.87,3.39a1.38,1.38,0,0,0,1.74,1,6.19,6.19,0,0,0,2.93-1.79,11.42,11.42,0,0,1,1-.86c.31-.23.47-.33.55-.31s.09.34,0,.85-.12,1.2-.21,1.89a12.53,12.53,0,0,1-.62,2.56,14.29,14.29,0,0,1-1.62,2.2,45.36,45.36,0,0,0-5.6,8.13,23.26,23.26,0,0,0-2.76,7.1,7.06,7.06,0,0,0-.1,2.51.37.37,0,0,0,.07.2,1.9,1.9,0,0,0,1.12,1.55,1.83,1.83,0,0,0,1.31.17,4.34,4.34,0,0,0,.52-.13,5,5,0,0,0,2-1.27,17.94,17.94,0,0,0,3.18-5.5A56.83,56.83,0,0,0,51,71.49c.2-.89.44-1.78.65-2.64a15.77,15.77,0,0,1,.5-1.62,12.79,12.79,0,0,1,1.64-2c1-1,2.05-2.13,3.23-3.33.79-.78,1.56-1.52,2.32-2.25s1.39-1.24,1.89-1.65a11.22,11.22,0,0,0,.85-.82c.18-.21.29-.37.27-.48s-.68,0-1.78.6a47.59,47.59,0,0,0-4.23,2.94c-.92.65-1.71,1.22-2.34,1.68a4.8,4.8,0,0,1-1.06.68c-.06,0-.07-.2-.07-.62s0-.82.06-1.33a19.89,19.89,0,0,0,0-2.78c-.07-.81-.29-1.3-.64-1.46s-.85,0-1.34.52S49.73,58.19,48.81,59a14.29,14.29,0,0,1-1.88,1.49c-.44.3-.68.37-.7.23-.13-.33,0-.78.42-1.42a7.37,7.37,0,0,1,1.52-1.76,10.58,10.58,0,0,1,1-.77,6.38,6.38,0,0,1,.94-.52,1.26,1.26,0,0,0,.58-.32A.54.54,0,0,0,50.73,55.52Z"/><path class="cls-2" d="M59.44,78.9a13.63,13.63,0,0,1,.89-2.25c.39-.85.81-1.71,1.3-2.58a36.13,36.13,0,0,1,2-3.52c.67-1,1.11-1.58,1.35-1.62h.07c0,.06.09.09.1.16a6.28,6.28,0,0,1-.4,2c-.41,1.35-.91,2.76-1.47,4.24-.4,1-.81,2-1.19,2.81A15.11,15.11,0,0,1,61.06,80c-.8,1.14-1.37,1.74-1.72,1.8-.1,0-.17,0-.22,0a.49.49,0,0,1-.16-.32A6.38,6.38,0,0,1,59.44,78.9Zm7.92-26.25a.5.5,0,0,0-.27-.28c-.07,0-.14,0-.21,0a2.55,2.55,0,0,0-.44.15,1.3,1.3,0,0,1-.36.13,2.19,2.19,0,0,1-.43.22,8.85,8.85,0,0,0-3.48,3c-.91,1.33-1.21,2.45-.87,3.39a1.38,1.38,0,0,0,1.74,1A6.14,6.14,0,0,0,66,58.44a11.42,11.42,0,0,1,1-.86c.32-.23.48-.33.55-.3s.1.34,0,.84-.11,1.2-.21,1.89a12.53,12.53,0,0,1-.62,2.56,15.22,15.22,0,0,1-1.61,2.21,45,45,0,0,0-5.61,8.12A23.52,23.52,0,0,0,56.78,80a7.31,7.31,0,0,0-.1,2.51.68.68,0,0,0,.07.2,1.91,1.91,0,0,0,1.13,1.55,1.78,1.78,0,0,0,1.31.17,3.83,3.83,0,0,0,.51-.13,5,5,0,0,0,2-1.27,18,18,0,0,0,3.17-5.5,55.47,55.47,0,0,0,2.8-8.92c.21-.89.44-1.78.65-2.64s.41-1.35.5-1.61a11.64,11.64,0,0,1,1.65-2c1-1,2.05-2.14,3.23-3.34.79-.78,1.55-1.51,2.31-2.25s1.39-1.24,1.89-1.65a11.22,11.22,0,0,0,.85-.82c.18-.21.3-.37.28-.47s-.68,0-1.79.59A49.21,49.21,0,0,0,73,57.33L70.67,59a5.5,5.5,0,0,1-1.06.69c-.07,0-.07-.21-.07-.63a13.23,13.23,0,0,1,0-1.33,18.58,18.58,0,0,0,0-2.78c-.07-.81-.3-1.3-.65-1.45s-.85,0-1.33.51-1.27,1.29-2.2,2.13a13.82,13.82,0,0,1-1.87,1.5c-.45.29-.69.36-.71.23-.13-.34,0-.79.43-1.43a7.52,7.52,0,0,1,1.51-1.76,10.58,10.58,0,0,1,1-.77,6.38,6.38,0,0,1,.94-.52,1.3,1.3,0,0,0,.59-.32A.56.56,0,0,0,67.36,52.65Z"/><path class="cls-2" d="M79.61,72.24l0-.1a3,3,0,0,1,.53-1.7,19.42,19.42,0,0,1,1.63-2.52c.34-.49.69-.94,1-1.36l1-1.13,0,0a2.67,2.67,0,0,1-.24.65c-.21.46-.47,1-.75,1.62-.16.32-.35.67-.51,1s-.35.67-.48.94a12.09,12.09,0,0,1-1.51,2.4c-.24.25-.38.42-.49.44S79.65,72.45,79.61,72.24Zm11-24.9a2,2,0,0,0-.4-.07c-.07,0-.18,0-.28,0h-.11a5,5,0,0,0-1.64,1.18q-1,1-2.86,3.27a49.52,49.52,0,0,1-4.06,4.48c-.86.79-1.39,1-1.6.63a2.18,2.18,0,0,1-.11-1A11.74,11.74,0,0,1,79.65,54a10.33,10.33,0,0,0,.09-2.36c0-.32-.28-.38-.67-.17-.16.1-.33.55-.52,1.3A24.17,24.17,0,0,0,78,55.15c-.11.59-.17,1.1-.23,1.57a4,4,0,0,0,0,1.07,2.18,2.18,0,0,0,2.35,1.66,6,6,0,0,0,2.4-1.38,29.07,29.07,0,0,0,3.29-3.38c.59-.71,1.17-1.31,1.65-1.82s.69-.72.76-.7a7.32,7.32,0,0,1-.3,1.33c-.21.82-.48,1.72-.78,2.7-.25.83-.48,1.54-.72,2.19a10.18,10.18,0,0,1-.49,1.3,11.54,11.54,0,0,1-.76,1q-.72.81-1.53,1.65a47.77,47.77,0,0,0-4.05,5,14,14,0,0,0-2.16,4.15A6.62,6.62,0,0,0,77,73.86l0,.07a1.73,1.73,0,0,0,.81,1.21,2,2,0,0,0,1.64.43A4.46,4.46,0,0,0,82,73.72c1.46-1.82,3.13-5.14,5-10,.49-1.3.89-2.26,1.14-2.91L94,55.51l3.55-3.14c.8-.71,1.4-1.2,1.73-1.55a.33.33,0,0,0,.16-.27s0-.07-.09-.13a.67.67,0,0,0-.54,0c-.4.14-1,.42-1.82.78a17.14,17.14,0,0,0-3.11,2c-1.07.82-2,1.56-2.82,2.23s-1.33,1.16-1.49,1.26,0-.32.26-1.19.52-1.73.8-2.74a18.56,18.56,0,0,0,.76-3.87A1.54,1.54,0,0,0,90.57,47.34Z"/><path class="cls-3" d="M2.62,80a1.67,1.67,0,0,0,.67,0,8.9,8.9,0,0,0,2.09-.72A35.5,35.5,0,0,0,10.72,76c2.35-1.65,4.52-3.06,6.52-4.26a62.19,62.19,0,0,1,5.83-3.15A10,10,0,0,0,25.69,67c.06-.08.12-.16.1-.23s-.4-.25-1.1-.2a19.78,19.78,0,0,0-6.46,2.15,67.27,67.27,0,0,0-8.72,5.39,27.1,27.1,0,0,1-2.27,1.49A3.73,3.73,0,0,1,6,76.28c-.2,0,.06-.69.81-2.14S8.55,71,9.79,69c.67-1.07,1.37-2.19,2.16-3.4s1.48-2.32,2.28-3.45c2.22-3.24,3.87-5.8,5-7.71a23.74,23.74,0,0,0,2.21-4.27c.87-2.42.54-4.08-.95-4.92a4.74,4.74,0,0,0-3-.37A13.56,13.56,0,0,0,14.12,46a28.68,28.68,0,0,0-4.39,2.83A22,22,0,0,0,6,52.24c-1.15,1.34-1.59,2.13-1.31,2.29s1-.29,2.41-1.52a40.8,40.8,0,0,1,4.11-3.2,13.64,13.64,0,0,1,4-2c.68-.19,1.29-.33,1.81-.42a1.78,1.78,0,0,1,1,0c.64.39.52,1.55-.39,3.49a92.89,92.89,0,0,1-6,9.66q-2.29,3.38-4.38,6.74c-1.4,2.23-2.55,4.18-3.48,5.83-.49.87-.92,1.66-1.24,2.28a15,15,0,0,0-.6,1.49,3.7,3.7,0,0,0-.18,1.85l0,.14C1.9,79.51,2.17,79.86,2.62,80Z"/><path class="cls-3" d="M27.67,55.83a.68.68,0,0,0,.33.3.46.46,0,0,0,.3.09c.21,0,.5-.41.94-1.2a5.35,5.35,0,0,0,.64-1.82,2,2,0,0,0,0-.42,1.28,1.28,0,0,0-.81-1,1.4,1.4,0,0,0-.66-.1,1,1,0,0,0-.71.59,3.64,3.64,0,0,0-.33,1.84,4.92,4.92,0,0,0,0,1.06A1.19,1.19,0,0,0,27.67,55.83Zm-.44,10.86a2.9,2.9,0,0,0,1.38.58,3.31,3.31,0,0,0,.7-.08c.42-.08,1-.18,1.75-.38a19.84,19.84,0,0,0,3.2-1.09c1.33-.51,2.68-1.14,4.1-1.81s2.66-1.28,4-2a28.6,28.6,0,0,0,3-1.77,6.9,6.9,0,0,0,1-.7c.25-.18.37-.35.35-.45s-.77-.12-2.18.34-3.86,1.38-7.3,2.69c-1.67.64-3.18,1.19-4.59,1.68a23.31,23.31,0,0,1-2.67.82c-1,.18-1.66.08-1.9-.31s-.35-1.4-.28-3c0-.78,0-1.46.07-2s0-.86,0-.89-.05-.07-.13-.12a1,1,0,0,1-.27-.1h-.07c-.2.07-.39.39-.64,1a21.57,21.57,0,0,0-.7,2.37c-.11.58-.19,1.13-.24,1.68a4.21,4.21,0,0,0,0,1.32l0,.2a3.51,3.51,0,0,0,.34,1.19A3.29,3.29,0,0,0,27.23,66.69Z"/><path class="cls-3" d="M43.66,81a12.8,12.8,0,0,1,.89-2.25c.39-.85.81-1.71,1.3-2.58a37,37,0,0,1,2-3.52c.68-1,1.12-1.58,1.36-1.62h.07c.05.06.09.09.1.16a6.28,6.28,0,0,1-.4,2c-.41,1.35-.92,2.76-1.48,4.24-.39,1-.8,2-1.18,2.81a16.49,16.49,0,0,1-1.06,1.92c-.8,1.14-1.37,1.74-1.72,1.8-.1,0-.17,0-.22,0a.49.49,0,0,1-.16-.32A6.38,6.38,0,0,1,43.66,81Zm7.91-26.25a.48.48,0,0,0-.26-.28c-.07,0-.14,0-.21,0a2.55,2.55,0,0,0-.44.15,1.26,1.26,0,0,1-.37.13,1.88,1.88,0,0,1-.42.22,8.78,8.78,0,0,0-3.48,3c-.91,1.33-1.21,2.45-.87,3.39a1.38,1.38,0,0,0,1.74,1,6.14,6.14,0,0,0,2.93-1.79,11.42,11.42,0,0,1,1-.86c.31-.23.47-.33.55-.3s.09.34,0,.84-.11,1.2-.21,1.89A12.53,12.53,0,0,1,51,64.64a15.22,15.22,0,0,1-1.61,2.21A45,45,0,0,0,43.76,75,23.26,23.26,0,0,0,41,82.07a7.31,7.31,0,0,0-.1,2.51.48.48,0,0,0,.07.2,1.9,1.9,0,0,0,1.12,1.55,1.8,1.8,0,0,0,1.32.17,4.25,4.25,0,0,0,.51-.13,5,5,0,0,0,2-1.27,18,18,0,0,0,3.17-5.5,56.5,56.5,0,0,0,2.8-8.92c.2-.89.44-1.78.65-2.64a14.55,14.55,0,0,1,.5-1.61,11.88,11.88,0,0,1,1.64-2c1-1,2-2.14,3.24-3.34.79-.78,1.55-1.51,2.31-2.25s1.39-1.24,1.89-1.65a11.22,11.22,0,0,0,.85-.82c.18-.21.29-.37.28-.48s-.68,0-1.79.6a46.25,46.25,0,0,0-4.22,2.94l-2.35,1.68a5.3,5.3,0,0,1-1.05.69c-.07,0-.07-.21-.08-.63s0-.82.06-1.33a20,20,0,0,0,0-2.78c-.07-.81-.3-1.3-.65-1.45s-.85,0-1.33.51-1.27,1.29-2.2,2.13a14.48,14.48,0,0,1-1.87,1.5c-.45.29-.69.36-.71.23-.13-.34,0-.79.43-1.43A7.52,7.52,0,0,1,49,56.76,10.58,10.58,0,0,1,50,56a6.38,6.38,0,0,1,.94-.52,1.3,1.3,0,0,0,.59-.32A.56.56,0,0,0,51.57,54.72Z"/><path class="cls-3" d="M60.28,78.09a13.63,13.63,0,0,1,.89-2.25c.39-.85.81-1.71,1.3-2.58a36.13,36.13,0,0,1,2-3.52c.67-1,1.11-1.58,1.35-1.62h.07c0,.06.09.09.1.16a6,6,0,0,1-.4,2c-.41,1.35-.91,2.76-1.47,4.24-.4,1-.8,2-1.19,2.81a15.38,15.38,0,0,1-1.06,1.93C61.1,80.37,60.53,81,60.19,81c-.11,0-.18,0-.22,0a.58.58,0,0,1-.17-.33A6.59,6.59,0,0,1,60.28,78.09ZM68.2,51.84a.55.55,0,0,0-.26-.28c-.07,0-.15,0-.22,0a3.18,3.18,0,0,0-.43.15,1.86,1.86,0,0,1-.37.14,2.84,2.84,0,0,1-.43.21A8.83,8.83,0,0,0,63,55c-.91,1.34-1.22,2.46-.88,3.39a1.39,1.39,0,0,0,1.75,1,6.15,6.15,0,0,0,2.93-1.79,9.74,9.74,0,0,1,1-.85c.32-.24.48-.34.55-.31s.1.34,0,.84-.11,1.2-.2,1.89a12,12,0,0,1-.63,2.57A15.88,15.88,0,0,1,66,64a45,45,0,0,0-5.61,8.12,23.46,23.46,0,0,0-2.75,7.1,7.06,7.06,0,0,0-.1,2.51.37.37,0,0,0,.07.2,1.9,1.9,0,0,0,1.12,1.55,1.78,1.78,0,0,0,1.31.17,2.12,2.12,0,0,0,.51-.13,5,5,0,0,0,2-1.26,18.27,18.27,0,0,0,3.18-5.5,58.05,58.05,0,0,0,2.8-8.93c.2-.88.43-1.78.64-2.64a16.27,16.27,0,0,1,.51-1.61,10.86,10.86,0,0,1,1.64-2c1-1,2-2.14,3.23-3.34.79-.78,1.55-1.51,2.32-2.25s1.38-1.24,1.88-1.64a11.49,11.49,0,0,0,.86-.83c.17-.21.29-.37.27-.47s-.68,0-1.78.59a47.59,47.59,0,0,0-4.23,2.94c-.92.66-1.71,1.22-2.34,1.69a5.09,5.09,0,0,1-1.06.68c-.07,0-.07-.2-.07-.63s0-.82.05-1.33a18.58,18.58,0,0,0,0-2.78c-.07-.8-.3-1.3-.64-1.45s-.86,0-1.34.51-1.27,1.29-2.19,2.13a14.39,14.39,0,0,1-1.88,1.5c-.45.29-.68.37-.71.23-.13-.34,0-.79.43-1.43a7.52,7.52,0,0,1,1.51-1.76c.31-.26.62-.53,1-.77a6.93,6.93,0,0,1,.94-.52,1.34,1.34,0,0,0,.59-.31A.55.55,0,0,0,68.2,51.84Z"/><path class="cls-3" d="M80.45,71.43v-.1A3,3,0,0,1,81,69.64a18.84,18.84,0,0,1,1.63-2.53,16.79,16.79,0,0,1,1-1.36l1-1.13,0,0a2.93,2.93,0,0,1-.25.65c-.2.46-.47,1-.75,1.63l-.51,1-.48.94a12.15,12.15,0,0,1-1.5,2.4c-.24.25-.39.42-.5.44S80.49,71.64,80.45,71.43Zm11-24.89a1.49,1.49,0,0,0-.41-.08c-.07,0-.18,0-.28,0h-.1A4.92,4.92,0,0,0,89,47.67q-1,1-2.85,3.27a50.76,50.76,0,0,1-4.07,4.48c-.86.79-1.39,1-1.6.63a2.09,2.09,0,0,1-.1-1,10.62,10.62,0,0,1,.13-1.88,9.75,9.75,0,0,0,.09-2.36c0-.31-.28-.38-.67-.17-.16.1-.33.55-.52,1.3s-.43,1.6-.58,2.41c-.11.59-.16,1.1-.22,1.57a4.07,4.07,0,0,0,0,1.07,2.18,2.18,0,0,0,2.35,1.66,5.82,5.82,0,0,0,2.4-1.38,29.07,29.07,0,0,0,3.29-3.38c.59-.71,1.17-1.31,1.65-1.82s.69-.72.77-.7a9.44,9.44,0,0,1-.31,1.33c-.21.82-.48,1.73-.77,2.7s-.49,1.55-.73,2.19a7.91,7.91,0,0,1-.49,1.3,11.54,11.54,0,0,1-.76.95q-.7.81-1.53,1.65a47.65,47.65,0,0,0-4,5,13.82,13.82,0,0,0-2.17,4.15,6.55,6.55,0,0,0-.36,2.41v.07a1.73,1.73,0,0,0,.81,1.21,2,2,0,0,0,1.64.43,4.46,4.46,0,0,0,2.46-1.85c1.46-1.82,3.13-5.13,5-10,.49-1.3.9-2.26,1.14-2.91l5.88-5.29,3.55-3.14c.81-.71,1.4-1.2,1.73-1.54a.35.35,0,0,0,.17-.28s0-.06-.1-.13a.65.65,0,0,0-.53,0c-.41.14-1,.43-1.83.78a18.1,18.1,0,0,0-3.11,2c-1.07.83-2,1.56-2.82,2.23s-1.33,1.16-1.49,1.26,0-.32.26-1.19.52-1.72.81-2.74A19.12,19.12,0,0,0,92.21,48,1.53,1.53,0,0,0,91.42,46.54Z"/><path class="cls-1" d="M122,69.53a12.7,12.7,0,0,0,.2,2c0,.41.16.6.32.57s.58-.53.94-1.52.88-3,1.67-6.18c.62-2.55,1.2-4.88,1.79-7.1s1.18-4.39,1.84-6.73c.36-1.2.75-2.49,1.18-3.86s.79-2.77,1.27-4.32,1-3.16,1.35-4.45.68-2.39,1-3.33a24.63,24.63,0,0,0,.76-3.92,4.28,4.28,0,0,0,0-1A1.92,1.92,0,0,0,134,29c-.35-.44-.67-.64-1-.6a5.15,5.15,0,0,0-1.75.94,24.41,24.41,0,0,0-4.19,4.32c-1.82,2.19-4.38,5.58-7.75,10.19-2,2.7-3.51,4.72-4.6,6s-1.73,2-1.87,1.86-.22-.42-.26-1a14.07,14.07,0,0,1,0-2.21,56.08,56.08,0,0,0,0-6.27,6.67,6.67,0,0,0-.71-3,1.85,1.85,0,0,0-1.57-.35A2.77,2.77,0,0,0,108.77,40a19.41,19.41,0,0,0-1.2,2.22c-.48,1-1,2.1-1.53,3.41-1,2.43-2,5.33-3.13,8.64s-2.2,6.74-3.19,10.24a44.25,44.25,0,0,0-1.3,5.31,2.25,2.25,0,0,0,0,.83c0,.32.14.43.39.39a15.79,15.79,0,0,0,1.2-2.83c.72-1.86,1.55-4.11,2.45-6.74,1.72-5,3.2-9,4.47-12.19s2-4.87,2.39-5.17.34.07.4.76.06,2.5,0,5.37a11.23,11.23,0,0,0,.52,4.27,1.92,1.92,0,0,0,1.73,1.48,3,3,0,0,0,2.23-.72,20.42,20.42,0,0,0,3.33-3.71c.77-1,1.66-2.2,2.69-3.66s2.25-3.18,3.61-5.22c1.09-1.55,2-2.86,2.79-4s1.47-2.05,2-2.87c1-1.45,1.72-2.37,2.14-2.84s.65-.62.75-.55a16.71,16.71,0,0,1-.71,2.52c-.55,1.63-1.23,3.53-2,5.77a153.92,153.92,0,0,0-5.35,17A46.1,46.1,0,0,0,122,69.53Z"/><path class="cls-1" d="M134.36,56.06c-.26-.12-.4-.51-.48-1.12a6.2,6.2,0,0,1-.07-.77,3.94,3.94,0,0,1,.5-2.28,4.12,4.12,0,0,0,1.33,1.33,5.83,5.83,0,0,0,1.16.66,1,1,0,0,1-.17.55,8,8,0,0,1-.43.72,2.36,2.36,0,0,1-.9.86.93.93,0,0,1-.43.15A.63.63,0,0,1,134.36,56.06Zm1-6.25h.12s.07,0,.11-.06l.25,0a1.62,1.62,0,0,1,1.33.46,1.26,1.26,0,0,1,.43.72,1.24,1.24,0,0,1-.14.76,2.8,2.8,0,0,1-1.24-.69A2.17,2.17,0,0,1,135.37,49.81Zm1.8-1.48a2.33,2.33,0,0,0-1.41-.37h-.08a2.42,2.42,0,0,0-1.12.48,5.13,5.13,0,0,0-1.6,2.32,14.23,14.23,0,0,0-.85,2.66,5.28,5.28,0,0,0,0,1.77,3.87,3.87,0,0,0,.22,1,3.05,3.05,0,0,0,1.29,1.87,2.12,2.12,0,0,0,2.1.07,5,5,0,0,0,2.1-1.69,4.25,4.25,0,0,0,.63-1c.2-.35.36-.66.49-.89a4.93,4.93,0,0,0,2.11-.13c1.12-.2,2.32-.45,3.54-.78.63-.18,1.23-.34,1.85-.55a14.66,14.66,0,0,0,1.56-.55,32.18,32.18,0,0,0,3-1.37,21.08,21.08,0,0,0,2.42-1.4,4.64,4.64,0,0,0,.71-.55.39.39,0,0,0,.2-.32v0a7.71,7.71,0,0,0-2.13.3c-1.35.32-3,.71-4.79,1.21s-3.63,1-5.07,1.25a11,11,0,0,1-3,.46,14.23,14.23,0,0,0-.25-1.81A3.41,3.41,0,0,0,137.17,48.33Z"/><path class="cls-1" d="M154.82,53.19c-.26-.13-.4-.52-.48-1.13a4.7,4.7,0,0,1-.07-.76,4,4,0,0,1,.5-2.29,4,4,0,0,0,1.33,1.33,5.83,5.83,0,0,0,1.16.66,1,1,0,0,1-.17.55c-.17.27-.29.54-.43.72a2.47,2.47,0,0,1-.9.87,1,1,0,0,1-.43.14A.66.66,0,0,1,154.82,53.19Zm1-6.25.12,0s.07-.05.11-.06l.24,0a1.6,1.6,0,0,1,1.34.47,1.21,1.21,0,0,1,.43.71,1.31,1.31,0,0,1-.14.76,2.86,2.86,0,0,1-1.24-.68A2.19,2.19,0,0,1,155.83,46.94Zm1.8-1.49a2.36,2.36,0,0,0-1.41-.37h-.08a2.38,2.38,0,0,0-1.12.48,5.06,5.06,0,0,0-1.6,2.32,13.64,13.64,0,0,0-.86,2.66,5.27,5.27,0,0,0,0,1.77,3.87,3.87,0,0,0,.22,1A3,3,0,0,0,154,55.18a2.1,2.1,0,0,0,1.43.29,2.18,2.18,0,0,0,.67-.22,5,5,0,0,0,2.1-1.68,5.37,5.37,0,0,0,.63-1l.49-.89a4.93,4.93,0,0,0,2.11-.13c1.12-.2,2.32-.45,3.54-.78.63-.17,1.22-.34,1.85-.55a14.66,14.66,0,0,0,1.56-.55c1-.39,2-.86,3-1.36a23.55,23.55,0,0,0,2.42-1.41,4.06,4.06,0,0,0,.7-.55.41.41,0,0,0,.21-.32v0a7.67,7.67,0,0,0-2.13.3c-1.35.32-3,.71-4.79,1.21s-3.64,1-5.07,1.25a11,11,0,0,1-3,.46,12.83,12.83,0,0,0-.26-1.81A3.38,3.38,0,0,0,157.63,45.45Z"/><path class="cls-1" d="M173.61,52.14a1,1,0,0,0,.85.21,2.15,2.15,0,0,0,.81-.36,10.2,10.2,0,0,0,2.26-2.57c2.08-3,3.69-5.24,4.87-6.8s1.81-2.22,1.95-2.16.13.39.13,1,0,1.27-.08,2a15.58,15.58,0,0,0,0,4.26,3,3,0,0,0,1.19,2,3.06,3.06,0,0,0,3,.23,21.4,21.4,0,0,0,4.61-2.49c1.94-1.34,3.74-2.53,5.31-3.62a20.47,20.47,0,0,0,2.75-2,9.09,9.09,0,0,0-2.5.6c-.89.37-1.78.78-2.7,1.24-1.68.89-3.3,1.85-4.89,2.82A8.47,8.47,0,0,1,187.37,48c-.42-.06-.69-.52-.81-1.4a13.11,13.11,0,0,1,.09-3.42,16.76,16.76,0,0,0,0-3.82,5.37,5.37,0,0,0-.36-1.38,1.62,1.62,0,0,0-.85-.54,1.8,1.8,0,0,0-.66,0,3.53,3.53,0,0,0-1.78,1,48.13,48.13,0,0,0-4.46,5.63c-1.54,2.15-2.71,3.74-3.46,4.83,0-1-.05-1.79,0-2.33-.07-2-.11-3.14-.18-3.58s-.29-.65-.58-.61-.46.47-.64,1.23a19.75,19.75,0,0,0-.44,2.73,21.07,21.07,0,0,0-.09,3.7,5.41,5.41,0,0,0,.07,1.06A1.69,1.69,0,0,0,173.61,52.14Z"/><path class="cls-2" d="M123,68.63a13,13,0,0,0,.2,2q.09.6.33.57c.28,0,.58-.53.93-1.53s.89-3,1.67-6.17c.63-2.55,1.2-4.89,1.79-7.1s1.19-4.39,1.84-6.74l1.18-3.85c.38-1.37.8-2.78,1.28-4.32s.95-3.17,1.34-4.45.69-2.4,1-3.34a23.15,23.15,0,0,0,.76-3.92,4.29,4.29,0,0,0,0-1,1.92,1.92,0,0,0-.22-.7c-.35-.45-.66-.65-1-.6a4.9,4.9,0,0,0-1.76.94,24.77,24.77,0,0,0-4.19,4.32c-1.82,2.18-4.38,5.58-7.74,10.19-2,2.7-3.52,4.72-4.61,6s-1.72,2-1.87,1.86-.22-.42-.26-1a13.06,13.06,0,0,1,0-2.21,55.86,55.86,0,0,0,0-6.27,6.34,6.34,0,0,0-.71-3,1.84,1.84,0,0,0-1.56-.36A2.79,2.79,0,0,0,109.78,39a18.56,18.56,0,0,0-1.21,2.22c-.47,1-1,2.11-1.52,3.42-1,2.43-2,5.32-3.13,8.63s-2.21,6.75-3.19,10.25a45,45,0,0,0-1.31,5.31,2.39,2.39,0,0,0,0,.82c0,.32.14.43.38.4a16.24,16.24,0,0,0,1.2-2.83c.72-1.87,1.55-4.12,2.45-6.74,1.72-5,3.2-9,4.48-12.19s2-4.88,2.38-5.17.34.07.4.76.06,2.49,0,5.37a10.87,10.87,0,0,0,.52,4.27A1.9,1.9,0,0,0,112.93,55a3,3,0,0,0,2.23-.73,19.83,19.83,0,0,0,3.34-3.7c.76-1,1.65-2.2,2.68-3.66s2.26-3.19,3.61-5.22c1.09-1.55,2-2.87,2.79-4s1.48-2.06,2-2.87A31.89,31.89,0,0,1,131.74,32c.39-.43.65-.63.74-.56a15,15,0,0,1-.71,2.52c-.55,1.64-1.23,3.53-2,5.78a153.85,153.85,0,0,0-5.35,17A46.57,46.57,0,0,0,123,68.63Z"/><path class="cls-2" d="M135.37,55.16c-.27-.13-.4-.52-.49-1.12a6.2,6.2,0,0,1-.07-.77,3.94,3.94,0,0,1,.5-2.28,4.36,4.36,0,0,0,1.34,1.33,5.66,5.66,0,0,0,1.16.65,1.35,1.35,0,0,1-.17.56c-.17.27-.3.53-.43.72a2.39,2.39,0,0,1-.91.86.9.9,0,0,1-.43.14A.64.64,0,0,1,135.37,55.16Zm1-6.25.12,0s.08,0,.12,0l.24,0a1.61,1.61,0,0,1,1.34.47,1.34,1.34,0,0,1,.43.72,1.42,1.42,0,0,1-.14.76,2.87,2.87,0,0,1-1.25-.69A2.17,2.17,0,0,1,136.37,48.91Zm1.8-1.48a2.27,2.27,0,0,0-1.4-.38h-.08a2.46,2.46,0,0,0-1.12.49,5,5,0,0,0-1.6,2.31,13.92,13.92,0,0,0-.86,2.67,5.22,5.22,0,0,0,0,1.76,4.31,4.31,0,0,0,.22,1,3.05,3.05,0,0,0,1.29,1.87,2.18,2.18,0,0,0,1.44.29,2.43,2.43,0,0,0,.66-.22,5.84,5.84,0,0,0,2.74-2.72c.19-.36.35-.67.48-.89a5.16,5.16,0,0,0,2.12-.13c1.12-.2,2.31-.45,3.54-.79.63-.17,1.22-.33,1.85-.55a15.6,15.6,0,0,0,1.56-.54,30.89,30.89,0,0,0,3-1.37,21.2,21.2,0,0,0,2.43-1.41,4,4,0,0,0,.7-.55.38.38,0,0,0,.2-.31v0a7.64,7.64,0,0,0-2.13.3c-1.35.31-3,.7-4.79,1.21s-3.64,1-5.08,1.24a10.72,10.72,0,0,1-3,.47,12.62,12.62,0,0,0-.25-1.81A3.37,3.37,0,0,0,138.17,47.43Z"/><path class="cls-2" d="M155.82,52.28c-.26-.13-.4-.52-.48-1.12a6.2,6.2,0,0,1-.07-.77,3.94,3.94,0,0,1,.5-2.28,4.44,4.44,0,0,0,1.33,1.33,5.21,5.21,0,0,0,1.16.65,1.14,1.14,0,0,1-.16.56c-.17.27-.3.53-.44.72a2.36,2.36,0,0,1-.9.86.9.9,0,0,1-.43.14A.67.67,0,0,1,155.82,52.28Zm1-6.25.12,0s.08,0,.12,0l.24,0a1.61,1.61,0,0,1,1.33.47,1.23,1.23,0,0,1,.43.72,1.26,1.26,0,0,1-.14.76,2.8,2.8,0,0,1-1.24-.69A2.17,2.17,0,0,1,156.83,46Zm1.8-1.48a2.35,2.35,0,0,0-1.41-.38h-.08a2.55,2.55,0,0,0-1.12.49,5.08,5.08,0,0,0-1.6,2.32,14.23,14.23,0,0,0-.85,2.66,5.27,5.27,0,0,0,0,1.77,4.34,4.34,0,0,0,.22,1A3.05,3.05,0,0,0,155,54.28a2.17,2.17,0,0,0,1.43.29,2.38,2.38,0,0,0,.67-.22,5,5,0,0,0,2.1-1.69,4.25,4.25,0,0,0,.63-1c.2-.36.36-.67.49-.89a5,5,0,0,0,2.12-.13c1.12-.2,2.31-.45,3.53-.79.63-.17,1.23-.33,1.85-.54a15.73,15.73,0,0,0,1.57-.55,30.89,30.89,0,0,0,3-1.37A22.11,22.11,0,0,0,174.86,46a5,5,0,0,0,.7-.54.4.4,0,0,0,.2-.32v0a7.71,7.71,0,0,0-2.13.3c-1.35.31-3,.71-4.79,1.21s-3.63,1-5.07,1.24a10.72,10.72,0,0,1-3,.47,14.23,14.23,0,0,0-.25-1.81A3.37,3.37,0,0,0,158.63,44.55Z"/><path class="cls-2" d="M174.61,51.24a1,1,0,0,0,.85.2,1.87,1.87,0,0,0,.81-.36,9.83,9.83,0,0,0,2.26-2.57c2.08-3,3.69-5.23,4.87-6.79s1.82-2.22,1.95-2.16.14.39.14,1,0,1.28-.09,2a15.06,15.06,0,0,0,0,4.26,2.94,2.94,0,0,0,1.19,2.05,3.09,3.09,0,0,0,3,.23,22.08,22.08,0,0,0,4.61-2.49c1.94-1.34,3.74-2.54,5.31-3.62a19.44,19.44,0,0,0,2.75-2,10,10,0,0,0-2.5.6c-.89.37-1.77.78-2.69,1.24-1.68.89-3.31,1.86-4.89,2.82a8.55,8.55,0,0,1-3.85,1.49c-.42-.07-.69-.52-.82-1.41a12.69,12.69,0,0,1,.1-3.41,20,20,0,0,0,.12-2,17,17,0,0,0-.09-1.79,5.46,5.46,0,0,0-.35-1.38,1.64,1.64,0,0,0-.86-.54,1.8,1.8,0,0,0-.66,0,3.5,3.5,0,0,0-1.78,1,48.33,48.33,0,0,0-4.46,5.63C178,45.3,176.87,46.9,176.12,48c0-1,0-1.8,0-2.33-.07-2-.11-3.14-.17-3.58s-.3-.66-.58-.62-.47.48-.65,1.24a18.41,18.41,0,0,0-.43,2.73,20.15,20.15,0,0,0-.1,3.7,5.36,5.36,0,0,0,.07,1A1.7,1.7,0,0,0,174.61,51.24Z"/><path class="cls-3" d="M124,67.73a12.68,12.68,0,0,0,.21,2c0,.4.16.59.32.57s.58-.54.93-1.53.89-3,1.68-6.18c.62-2.55,1.19-4.88,1.79-7.1s1.18-4.38,1.83-6.73c.37-1.2.76-2.49,1.18-3.86s.8-2.77,1.28-4.32l1.34-4.45c.4-1.28.69-2.39,1-3.33a25.63,25.63,0,0,0,.76-3.92,4.9,4.9,0,0,0,0-1,2.2,2.2,0,0,0-.22-.71c-.35-.44-.67-.64-1-.6a5,5,0,0,0-1.75.95,24.06,24.06,0,0,0-4.19,4.32C127.25,34,124.7,37.41,121.33,42c-2,2.69-3.52,4.71-4.6,6s-1.73,2-1.87,1.86-.23-.41-.27-1a13.1,13.1,0,0,1,0-2.21,56.08,56.08,0,0,0,0-6.27,6.67,6.67,0,0,0-.71-3,1.85,1.85,0,0,0-1.57-.35,2.77,2.77,0,0,0-1.49,1.07,20.32,20.32,0,0,0-1.2,2.22c-.48,1-1,2.1-1.53,3.41-1,2.43-2,5.33-3.13,8.64s-2.21,6.75-3.19,10.25a42.29,42.29,0,0,0-1.3,5.3,2.25,2.25,0,0,0-.05.83c0,.32.14.43.38.4a15.69,15.69,0,0,0,1.2-2.84c.72-1.86,1.56-4.11,2.46-6.74,1.72-5,3.2-9,4.47-12.19s2-4.87,2.39-5.17c.22-.19.34.08.39.77s.07,2.49,0,5.36a10.84,10.84,0,0,0,.52,4.27,1.9,1.9,0,0,0,1.72,1.48,3,3,0,0,0,2.24-.72,20.42,20.42,0,0,0,3.33-3.71c.77-1,1.66-2.2,2.68-3.65s2.26-3.19,3.61-5.23c1.1-1.54,2-2.86,2.8-4s1.47-2.05,2-2.86c1-1.46,1.72-2.38,2.14-2.85s.65-.62.74-.55a14.14,14.14,0,0,1-.71,2.52c-.55,1.63-1.22,3.53-2,5.77a151.8,151.8,0,0,0-5.35,17A46.63,46.63,0,0,0,124,67.73Z"/><path class="cls-3" d="M136.37,54.26c-.26-.13-.4-.52-.49-1.12a6.91,6.91,0,0,1-.06-.77,4,4,0,0,1,.5-2.29,4,4,0,0,0,1.33,1.33,5.83,5.83,0,0,0,1.16.66,1,1,0,0,1-.17.55c-.17.27-.29.54-.43.72a2.47,2.47,0,0,1-.9.87,1,1,0,0,1-.43.14A.66.66,0,0,1,136.37,54.26Zm1-6.25.12,0s.07-.05.11-.06l.24,0a1.6,1.6,0,0,1,1.34.47,1.26,1.26,0,0,1,.43.71,1.31,1.31,0,0,1-.14.76,2.86,2.86,0,0,1-1.24-.68A2.19,2.19,0,0,1,137.38,48Zm1.8-1.49a2.36,2.36,0,0,0-1.41-.37h-.08a2.49,2.49,0,0,0-1.12.48A5.06,5.06,0,0,0,135,49a13.64,13.64,0,0,0-.86,2.66,5.27,5.27,0,0,0,0,1.77,3.87,3.87,0,0,0,.22,1,3,3,0,0,0,1.29,1.87,2,2,0,0,0,1.43.29,2.44,2.44,0,0,0,.67-.21,5.1,5.1,0,0,0,2.1-1.69,5.37,5.37,0,0,0,.63-1c.19-.35.36-.66.49-.88a5.19,5.19,0,0,0,2.11-.14c1.12-.2,2.32-.45,3.54-.78.63-.17,1.22-.34,1.85-.55A14.66,14.66,0,0,0,150,50.7a32.07,32.07,0,0,0,3-1.36,23.55,23.55,0,0,0,2.42-1.41,4.5,4.5,0,0,0,.7-.55.37.37,0,0,0,.2-.32v0a8.18,8.18,0,0,0-2.13.3c-1.35.32-3,.71-4.79,1.21s-3.64,1-5.07,1.25a11,11,0,0,1-3,.46,12.83,12.83,0,0,0-.26-1.81A3.38,3.38,0,0,0,139.18,46.52Z"/><path class="cls-3" d="M156.83,51.38c-.27-.13-.4-.52-.49-1.12a5,5,0,0,1-.06-.77,3.9,3.9,0,0,1,.49-2.29,4.15,4.15,0,0,0,1.34,1.33,5.83,5.83,0,0,0,1.16.66,1.21,1.21,0,0,1-.17.56c-.17.27-.29.53-.43.71a2.34,2.34,0,0,1-.91.87,1,1,0,0,1-.43.14A.65.65,0,0,1,156.83,51.38Zm1-6.25.12,0c.05,0,.08,0,.12-.06l.24,0a1.61,1.61,0,0,1,1.34.47,1.31,1.31,0,0,1,.43.72,1.37,1.37,0,0,1-.14.75,3,3,0,0,1-1.25-.68A2.24,2.24,0,0,1,157.83,45.13Zm1.8-1.49a2.32,2.32,0,0,0-1.4-.37h-.08a2.4,2.4,0,0,0-1.12.49,4.9,4.9,0,0,0-1.6,2.31,14.08,14.08,0,0,0-.86,2.66,5.28,5.28,0,0,0,0,1.77,3.87,3.87,0,0,0,.23,1A3,3,0,0,0,156,53.37a2.08,2.08,0,0,0,1.44.29,2.39,2.39,0,0,0,.66-.21,5,5,0,0,0,2.1-1.69,5.09,5.09,0,0,0,.64-1c.19-.36.35-.67.49-.89a5.19,5.19,0,0,0,2.11-.14c1.12-.2,2.31-.45,3.54-.78.63-.17,1.22-.34,1.85-.55a13.36,13.36,0,0,0,1.56-.55,28.58,28.58,0,0,0,3-1.36,22.79,22.79,0,0,0,2.43-1.41,4.5,4.5,0,0,0,.7-.55.38.38,0,0,0,.2-.31v0a7.23,7.23,0,0,0-2.13.3c-1.35.31-3,.7-4.79,1.2s-3.64,1-5.07,1.25a10.62,10.62,0,0,1-3,.46,14.76,14.76,0,0,0-.26-1.81A3.37,3.37,0,0,0,159.63,43.64Z"/><path class="cls-3" d="M175.62,50.33a1,1,0,0,0,.85.21,1.87,1.87,0,0,0,.81-.36,10.4,10.4,0,0,0,2.26-2.57c2.08-3,3.69-5.24,4.86-6.79s1.82-2.23,1.95-2.16.14.39.14,1,0,1.27-.09,2a15.47,15.47,0,0,0,0,4.26A3,3,0,0,0,187.62,48a3.09,3.09,0,0,0,3,.23,21.5,21.5,0,0,0,4.61-2.5c1.95-1.34,3.75-2.53,5.32-3.61a19.91,19.91,0,0,0,2.74-2,9,9,0,0,0-2.49.6c-.9.37-1.78.78-2.7,1.24-1.68.89-3.3,1.86-4.89,2.82a8.39,8.39,0,0,1-3.85,1.48c-.42-.06-.69-.52-.81-1.4a12.68,12.68,0,0,1,.09-3.42,19.42,19.42,0,0,0,.13-2c0-.74,0-1.31-.09-1.79a5.36,5.36,0,0,0-.36-1.39,1.59,1.59,0,0,0-.86-.53,1.45,1.45,0,0,0-.66,0,3.54,3.54,0,0,0-1.78,1,49.12,49.12,0,0,0-4.45,5.62c-1.54,2.15-2.71,3.75-3.46,4.84,0-1,0-1.8,0-2.34-.07-2-.12-3.14-.18-3.58s-.3-.65-.58-.61-.46.47-.64,1.24a18,18,0,0,0-.44,2.72,19.3,19.3,0,0,0-.09,3.7,4.8,4.8,0,0,0,.06,1.06A1.63,1.63,0,0,0,175.62,50.33Z"/></g></svg>